<?xml version="1.0" encoding="iso-8859-1"?>
<svg version="1.1" id="Layer_1" xmlns="http://www.w3.org/2000/svg" xmlns:xlink="http://www.w3.org/1999/xlink" x="0px" y="0px"
     viewBox="0 0 511.994 511.994" style="enable-background:new 0 0 511.994 511.994;" xml:space="preserve">
  <path style="fill:#4D4D4D;" d="M256,0C114.62,0,0,114.62,0,256s114.62,256,256,256s256-114.62,256-256S397.38,0,256,0z M256,480
    C132.288,480,32,379.712,32,256S132.288,32,256,32s224,100.288,224,224S379.712,480,256,480z"/>
  <path style="fill:#FFCC00;" d="M328,168c-11.048,0-20,8.952-20,20v52h-40v-52c0-11.048-8.952-20-20-20s-20,8.952-20,20v52h-40v-52
    c0-11.048-8.952-20-20-20s-20,8.952-20,20v64c0,11.048,8.952,20,20,20h180c11.048,0,20-8.952,20-20v-64
    C348,176.952,339.048,168,328,168z"/>
  <path style="fill:#4D4D4D;" d="M256,300c-8.832,0-16,7.168-16,16v56h-40v-56c0-8.832-7.168-16-16-16s-16,7.168-16,16v56
    c0,26.512,21.488,48,48,48h64c26.512,0,48-21.488,48-48v-56c0-8.832-7.168-16-16-16H256z"/>
</svg>
