<?xml version="1.0" encoding="iso-8859-1"?>
<svg version="1.1" id="Layer_1" xmlns="http://www.w3.org/2000/svg" xmlns:xlink="http://www.w3.org/1999/xlink" x="0px" y="0px"
     viewBox="0 0 511.994 511.994" style="enable-background:new 0 0 511.994 511.994;" xml:space="preserve">
  <path style="fill:#4D4D4D;" d="M256,0C114.62,0,0,114.62,0,256s114.62,256,256,256s256-114.62,256-256S397.38,0,256,0z M256,480
    C132.288,480,32,379.712,32,256S132.288,32,256,32s224,100.288,224,224S379.712,480,256,480z"/>
  <path style="fill:#FFCC00;" d="M368,192h-64v-32c0-26.512-21.488-48-48-48s-48,21.488-48,48v32h-64c-8.832,0-16,7.168-16,16
    v192c0,8.832,7.168,16,16,16h224c8.832,0,16-7.168,16-16V208C384,199.168,376.832,192,368,192z M240,160c0-8.832,7.168-16,16-16
    s16,7.168,16,16v32h-32V160z M352,384H160V224h192V384z"/>
  <path style="fill:#4D4D4D;" d="M216,304h80c8.832,0,16-7.168,16-16s-7.168-16-16-16h-80c-8.832,0-16,7.168-16,16
    S207.168,304,216,304z M216,352h80c8.832,0,16-7.168,16-16s-7.168-16-16-16h-80c-8.832,0-16,7.168-16,16S207.168,352,216,352z"/>
</svg>
