<?xml version="1.0" encoding="iso-8859-1"?>
<svg version="1.1" id="Layer_1" xmlns="http://www.w3.org/2000/svg" xmlns:xlink="http://www.w3.org/1999/xlink" x="0px" y="0px"
     viewBox="0 0 511.994 511.994" style="enable-background:new 0 0 511.994 511.994;" xml:space="preserve">
  <path style="fill:#4D4D4D;" d="M256,0C114.62,0,0,114.62,0,256s114.62,256,256,256s256-114.62,256-256S397.38,0,256,0z M256,480
    C132.288,480,32,379.712,32,256S132.288,32,256,32s224,100.288,224,224S379.712,480,256,480z"/>
  <path style="fill:#FFCC00;" d="M368,224c-8.832,0-16,7.168-16,16v128c0,8.832-7.168,16-16,16h-32c-8.832,0-16-7.168-16-16V240
    c0-8.832-7.168-16-16-16h-32c-8.832,0-16,7.168-16,16v128c0,8.832-7.168,16-16,16h-32c-8.832,0-16-7.168-16-16V240
    c0-8.832-7.168-16-16-16c-8.832,0-16,7.168-16,16v128c0,26.512,21.488,48,48,48h192c26.512,0,48-21.488,48-48V240
    C384,231.168,376.832,224,368,224z"/>
</svg>
